<svg width="101" height="17" viewBox="0 0 101 17" fill="none" xmlns="http://www.w3.org/2000/svg">
  <g clip-path="url(#clip0_480_4495)">
    <path d="M7.71026 0.529154C8.00245 -0.176385 8.99759 -0.176384 9.28978 0.529156L11.0142 4.69338C11.1375 4.99082 11.416 5.19404 11.7357 5.21978L16.2118 5.5802C16.9702 5.64127 17.2777 6.59182 16.6999 7.08893L13.2896 10.0229C13.046 10.2325 12.9396 10.5614 13.014 10.8747L14.0559 15.2617C14.2324 16.0049 13.4274 16.5925 12.7781 16.1942L8.94588 13.8432C8.67215 13.6753 8.3279 13.6753 8.05418 13.8432L4.22195 16.1942C3.57265 16.5925 2.76757 16.0049 2.9441 15.2617L3.98602 10.8747C4.06044 10.5614 3.95406 10.2325 3.71048 10.0229L0.300104 7.08893C-0.277711 6.59182 0.0298078 5.64127 0.788199 5.5802L5.26436 5.21978C5.58409 5.19404 5.8626 4.99082 5.98577 4.69338L7.71026 0.529154Z" fill="#FFE550" />
    <path d="M28.7103 0.529154C29.0024 -0.176385 29.9976 -0.176384 30.2898 0.529156L32.0142 4.69338C32.1375 4.99082 32.416 5.19404 32.7357 5.21978L37.2118 5.5802C37.9702 5.64127 38.2777 6.59182 37.6999 7.08893L34.2896 10.0229C34.046 10.2325 33.9396 10.5614 34.014 10.8747L35.0559 15.2617C35.2324 16.0049 34.4274 16.5925 33.7781 16.1942L29.9459 13.8432C29.6721 13.6753 29.3279 13.6753 29.0542 13.8432L25.222 16.1942C24.5727 16.5925 23.7676 16.0049 23.9441 15.2617L24.986 10.8747C25.0604 10.5614 24.9541 10.2325 24.7105 10.0229L21.3001 7.08893C20.7223 6.59182 21.0298 5.64127 21.7882 5.5802L26.2644 5.21978C26.5841 5.19404 26.8626 4.99082 26.9858 4.69338L28.7103 0.529154Z" fill="#FFE550" />
    <path d="M49.7103 0.529154C50.0024 -0.176385 50.9976 -0.176384 51.2898 0.529156L53.0142 4.69338C53.1375 4.99082 53.416 5.19404 53.7357 5.21978L58.2118 5.5802C58.9702 5.64127 59.2777 6.59182 58.6999 7.08893L55.2896 10.0229C55.046 10.2325 54.9396 10.5614 55.014 10.8747L56.0559 15.2617C56.2324 16.0049 55.4274 16.5925 54.7781 16.1942L50.9459 13.8432C50.6721 13.6753 50.3279 13.6753 50.0542 13.8432L46.222 16.1942C45.5727 16.5925 44.7676 16.0049 44.9441 15.2617L45.986 10.8747C46.0604 10.5614 45.9541 10.2325 45.7105 10.0229L42.3001 7.08893C41.7223 6.59182 42.0298 5.64127 42.7882 5.5802L47.2644 5.21978C47.5841 5.19404 47.8626 4.99082 47.9858 4.69338L49.7103 0.529154Z" fill="#FFE550" />
    <path d="M70.7103 0.529154C71.0024 -0.176385 71.9976 -0.176384 72.2898 0.529156L74.0142 4.69338C74.1375 4.99082 74.416 5.19404 74.7357 5.21978L79.2118 5.5802C79.9702 5.64127 80.2777 6.59182 79.6999 7.08893L76.2896 10.0229C76.046 10.2325 75.9396 10.5614 76.014 10.8747L77.0559 15.2617C77.2324 16.0049 76.4274 16.5925 75.7781 16.1942L71.9459 13.8432C71.6721 13.6753 71.3279 13.6753 71.0542 13.8432L67.222 16.1942C66.5727 16.5925 65.7676 16.0049 65.9441 15.2617L66.986 10.8747C67.0604 10.5614 66.9541 10.2325 66.7105 10.0229L63.3001 7.08893C62.7223 6.59182 63.0298 5.64127 63.7882 5.5802L68.2644 5.21978C68.5841 5.19404 68.8626 4.99082 68.9858 4.69338L70.7103 0.529154Z" fill="#FFE550" />
    <path d="M91.7103 0.529154C92.0024 -0.176385 92.9976 -0.176384 93.2898 0.529156L95.0142 4.69338C95.1375 4.99082 95.416 5.19404 95.7357 5.21978L100.212 5.5802C100.97 5.64127 101.278 6.59182 100.7 7.08893L97.2896 10.0229C97.046 10.2325 96.9396 10.5614 97.014 10.8747L98.0559 15.2617C98.2324 16.0049 97.4274 16.5925 96.7781 16.1942L92.9459 13.8432C92.6721 13.6753 92.3279 13.6753 92.0542 13.8432L88.222 16.1942C87.5727 16.5925 86.7676 16.0049 86.9441 15.2617L87.986 10.8747C88.0604 10.5614 87.9541 10.2325 87.7105 10.0229L84.3001 7.08893C83.7223 6.59182 84.0298 5.64127 84.7882 5.5802L89.2644 5.21978C89.5841 5.19404 89.8626 4.99082 89.9858 4.69338L91.7103 0.529154Z" fill="#FFE550" />
  </g>
  <defs>
    <clipPath id="clip0_480_4495">
      <rect width="101" height="16.3228" fill="white" />
    </clipPath>
  </defs>
</svg>