<svg aria-hidden="true" style="position: absolute; width: 0; height: 0; overflow: hidden;" version="1.1" xmlns="http://www.w3.org/2000/svg" xmlns:xlink="http://www.w3.org/1999/xlink">
<defs>
<symbol id="icon-Stars" viewBox="0 0 190 32">
<path d="M14.513 1.528c0.55-1.328 2.423-1.328 2.973 0l3.246 7.839c0.232 0.56 0.756 0.942 1.358 0.991l8.426 0.678c1.428 0.115 2.006 1.904 0.919 2.84l-6.419 5.523c-0.459 0.395-0.659 1.013-0.519 1.603l1.961 8.258c0.332 1.399-1.183 2.505-2.405 1.755l-7.214-4.425c-0.515-0.316-1.163-0.316-1.678 0l-7.214 4.425c-1.222 0.75-2.738-0.356-2.405-1.755l1.961-8.258c0.14-0.59-0.060-1.209-0.519-1.603l-6.42-5.523c-1.088-0.936-0.509-2.725 0.919-2.84l8.426-0.678c0.602-0.048 1.126-0.431 1.358-0.991l3.246-7.839z"></path>
<path d="M54.043 1.528c0.55-1.328 2.423-1.328 2.973 0l3.246 7.839c0.232 0.56 0.756 0.942 1.358 0.991l8.426 0.678c1.428 0.115 2.006 1.904 0.919 2.84l-6.419 5.523c-0.459 0.395-0.659 1.013-0.519 1.603l1.961 8.258c0.332 1.399-1.183 2.505-2.405 1.755l-7.214-4.425c-0.515-0.316-1.163-0.316-1.678 0l-7.214 4.425c-1.222 0.75-2.738-0.356-2.405-1.755l1.961-8.258c0.14-0.59-0.060-1.209-0.519-1.603l-6.42-5.523c-1.088-0.936-0.509-2.725 0.919-2.84l8.426-0.678c0.602-0.048 1.126-0.431 1.358-0.991l3.246-7.839z"></path>
<path d="M93.572 1.528c0.55-1.328 2.423-1.328 2.973 0l3.246 7.839c0.232 0.56 0.756 0.942 1.358 0.991l8.426 0.678c1.428 0.115 2.006 1.904 0.919 2.84l-6.419 5.523c-0.459 0.395-0.659 1.013-0.519 1.603l1.961 8.258c0.332 1.399-1.183 2.505-2.405 1.755l-7.214-4.425c-0.515-0.316-1.163-0.316-1.678 0l-7.214 4.425c-1.222 0.75-2.738-0.356-2.405-1.755l1.961-8.258c0.14-0.59-0.060-1.209-0.519-1.603l-6.42-5.523c-1.088-0.936-0.509-2.725 0.919-2.84l8.426-0.678c0.602-0.048 1.126-0.431 1.358-0.991l3.246-7.839z"></path>
<path d="M133.102 1.528c0.55-1.328 2.423-1.328 2.973 0l3.246 7.839c0.232 0.56 0.756 0.942 1.358 0.991l8.426 0.678c1.428 0.115 2.006 1.904 0.919 2.84l-6.419 5.523c-0.459 0.395-0.659 1.013-0.519 1.603l1.961 8.258c0.332 1.399-1.183 2.505-2.405 1.755l-7.214-4.425c-0.515-0.316-1.163-0.316-1.679 0l-7.214 4.425c-1.222 0.75-2.738-0.356-2.405-1.755l1.961-8.258c0.14-0.59-0.060-1.209-0.519-1.603l-6.42-5.523c-1.088-0.936-0.509-2.725 0.919-2.84l8.426-0.678c0.602-0.048 1.126-0.431 1.358-0.991l3.246-7.839z"></path>
<path d="M172.631 1.528c0.55-1.328 2.423-1.328 2.973 0l3.246 7.839c0.232 0.56 0.756 0.942 1.358 0.991l8.426 0.678c1.427 0.115 2.007 1.904 0.919 2.84l-6.42 5.523c-0.459 0.395-0.659 1.013-0.519 1.603l1.961 8.258c0.332 1.399-1.183 2.505-2.405 1.755l-7.214-4.425c-0.515-0.316-1.163-0.316-1.679 0l-7.214 4.425c-1.222 0.75-2.738-0.356-2.405-1.755l1.961-8.258c0.14-0.59-0.060-1.209-0.519-1.603l-6.42-5.523c-1.088-0.936-0.509-2.725 0.919-2.84l8.426-0.678c0.602-0.048 1.126-0.431 1.358-0.991l3.246-7.839z"></path>
</symbol>
</defs>
</svg>
